PathFileType	4	(X/Y/Z)	D:\Share\Shared_Data\Ergonomics\Sit To Stand Pertubation\S0\Perturbed STS.trc
DataRate	CameraRate	NumFrames	NumMarkers	Units	OrigDataRate	OrigDataStartFrame	OrigNumFrames	
100	100	11	18	m	100	8861	221
Frame#	Time	R_Heel			R_ASIS			R_Pelvis			V_Sacral			L_Pelvis			L_ASIS			Clavical			R_Acromium			L_Acromium			Sternum			Torso			R_Thigh_Med			R_Thigh_Lat			R_Thigh			R_Shank_Med			R_Shank_Lat			R_Shank			R_Toe			
		X1	Y1	Z1	X2	Y2	Z2	X3	Y3	Z3	X4	Y4	Z4	X5	Y5	Z5	X6	Y6	Z6	X7	Y7	Z7	X8	Y8	Z8	X9	Y9	Z9	X10	Y10	Z10	X11	Y11	Z11	X12	Y12	Z12	X13	Y13	Z13	X14	Y14	Z14	X15	Y15	Z15	X16	Y16	Z16	X17	Y17	Z17	X18	Y18	Z18	

8861	44.95	0.15978218	0.04105571	0.1206039	0.32885797	1.0019133	0.14925444	0.20491264	1.0218098	0.19202911	0.079151711	1.0269735	-0.03410173	0.22094928	1.0065607	-0.21483476	0.33774152	0.98445007	-0.16846509	0.36175931	1.4387516	-0.024149809	0.2775459	1.5073914	0.11307716	0.27900772	1.5096719	-0.17760228	0.39190997	1.3446833	-0.038940693	0.36532681	1.3900852	-0.14660641	0.29061533	0.49577368	0.025211857	0.28991068	0.51853851	0.15274902	0.36325394	0.65199097	0.087885666	0.25623071	0.10117181	0.073334877	0.19944321	0.085883652	0.16276091	0.23847116	0.31699084	0.17593184	0.38604218	0.04739571	0.11136729
8862	44.96	0.15977158	0.04104895	0.12063056	0.33045667	1.0023489	0.14943961	0.20646414	1.0219199	0.19213039	0.080769768	1.0265778	-0.033997612	0.22264471	1.0065489	-0.21466267	0.33957932	0.98490692	-0.16835541	0.36135275	1.4395022	-0.023856846	0.27665207	1.5077064	0.1133707	0.27817432	1.5099932	-0.17737463	0.39202301	1.3456055	-0.038641644	0.36518054	1.3908779	-0.14635829	0.2901199	0.49584756	0.025319284	0.28938818	0.51867792	0.15277692	0.3634498	0.65176001	0.088040733	0.25615875	0.10122195	0.073451103	0.19933305	0.085866592	0.16279253	0.23796017	0.31710068	0.17602803	0.3860192	0.047362381	0.11147513
8863	44.97	0.15976349	0.041042656	0.12064986	0.33203186	1.0027877	0.14963182	0.20796794	1.022012	0.19222688	0.082373444	1.0261549	-0.03390493	0.22433627	1.0065245	-0.21449478	0.34138986	0.98533838	-0.16823065	0.3609444	1.4402134	-0.023567822	0.2757858	1.5079998	0.11366216	0.27735104	1.5102761	-0.17714368	0.39213159	1.3464934	-0.038344658	0.36502548	1.391634	-0.14610869	0.28957141	0.49592841	0.025415379	0.28882306	0.51881836	0.1528053	0.36360864	0.65152948	0.08821199	0.25608084	0.10126978	0.073559265	0.19922136	0.085850685	0.16281195	0.23743161	0.31721521	0.17611806	0.38599387	0.04731477	0.11158573
8864	44.98	0.15975818	0.041037582	0.12066368	0.33358316	1.0032278	0.14982753	0.20942688	1.0220845	0.19231744	0.083964981	1.0257087	-0.033826569	0.22602361	1.006486	-0.21433327	0.3431514	0.98573059	-0.168092	0.36053442	1.4408867	-0.023283098	0.27494238	1.5082684	0.11395123	0.27653516	1.510521	-0.17691068	0.3922326	1.3473461	-0.038051659	0.36486102	1.392353	-0.14585988	0.28897583	0.49601569	0.02550276	0.28821872	0.51895923	0.15283559	0.3637366	0.65130042	0.088389542	0.25599855	0.1013171	0.073661522	0.19911026	0.08583593	0.16282236	0.23688208	0.31733502	0.17620627	0.38596564	0.047252491	0.11169994
8865	44.99	0.15975589	0.041034397	0.12067425	0.335104	1.0036609	0.15002153	0.21084459	1.0221359	0.19239986	0.085544586	1.0252465	-0.03376643	0.2277019	1.0064308	-0.21417949	0.34484875	0.98607538	-0.16794313	0.36012308	1.4415248	-0.023002884	0.27411676	1.5085098	0.11423781	0.27572336	1.5107289	-0.17667682	0.39232285	1.3481631	-0.037764439	0.36468649	1.3930353	-0.14561363	0.28834354	0.49610742	0.025587444	0.28758002	0.51910065	0.15286911	0.36383655	0.65107349	0.088564934	0.25591409	0.10136642	0.073760216	0.19900258	0.085822128	0.16282823	0.23630905	0.31746017	0.1762964	0.3859343	0.047177235	0.11181757
8866	45	0.15975612	0.041033001	0.12068391	0.33658282	1.0040751	0.15020789	0.21222476	1.022166	0.19247136	0.087111473	1.0247766	-0.033728416	0.22936409	1.0063579	-0.21403415	0.34648325	0.98637378	-0.16779146	0.35971091	1.4421298	-0.022727497	0.27330386	1.5087207	0.11452173	0.27491293	1.5108998	-0.1764433	0.39240033	1.3489448	-0.037484726	0.36450165	1.3936813	-0.145371	0.28768445	0.49620074	0.02567667	0.28691165	0.51924323	0.15290688	0.36391	0.65085034	0.088730743	0.2558297	0.10142012	0.073857178	0.19890009	0.085808578	0.16283476	0.2357122	0.31759024	0.17639047	0.38589935	0.047092491	0.11193754
8867	45.01	0.15975772	0.041032452	0.12069487	0.33800925	1.0044588	0.15038133	0.2135705	1.0221768	0.19252902	0.088665428	1.0243069	-0.033715408	0.23100443	1.0062666	-0.21389778	0.3480715	0.9866333	-0.16764644	0.35929944	1.4427048	-0.022457325	0.27249936	1.5088998	0.11480276	0.27410144	1.5110336	-0.17621097	0.39246402	1.349692	-0.037213833	0.36430746	1.3942921	-0.14513275	0.28700378	0.496293	0.02577634	0.28621689	0.51938757	0.15294968	0.36395767	0.65063397	0.088880531	0.25574715	0.10148015	0.073953423	0.1988026	0.085794067	0.16284662	0.23509244	0.31772385	0.17648906	0.3858606	0.047003063	0.11205861
8868	45.02	0.15975914	0.041031441	0.12070894	0.33938171	1.0048055	0.15053819	0.21488391	1.0221719	0.19257062	0.090207367	1.0238441	-0.033728859	0.23262059	1.0061583	-0.2137718	0.3496358	0.98686322	-0.16751613	0.35889099	1.4432532	-0.022192888	0.27169986	1.5090458	0.11508047	0.2732869	1.5111299	-0.17598068	0.3925134	1.3504058	-0.036952538	0.36410608	1.3948691	-0.14489938	0.2863006	0.49638245	0.025889229	0.28549759	0.51953381	0.152998	0.36397974	0.65042767	0.089009056	0.25566885	0.10154845	0.074049179	0.19870804	0.085777321	0.16286685	0.23445007	0.31785922	0.1765925	0.38581772	0.046914101	0.1121801
8869	45.03	0.15975908	0.041028919	0.12072749	0.34070847	1.0051155	0.15067683	0.21616663	1.0221573	0.19259532	0.091738602	1.0233921	-0.033769085	0.23421556	1.0060367	-0.21366005	0.35119449	0.98707031	-0.1674041	0.35848785	1.4437771	-0.021935112	0.27090329	1.509158	0.11535408	0.27246786	1.5111881	-0.1757536	0.39254886	1.3510875	-0.036701424	0.36390094	1.3954144	-0.14467162	0.28556894	0.49646817	0.026014481	0.2847551	0.51968164	0.15305188	0.36397534	0.65023297	0.089112602	0.25559831	0.1016271	0.074143936	0.19861406	0.0857575	0.16289626	0.23378436	0.31799435	0.17670128	0.38577109	0.046829708	0.11230183
8870	45.04	0.1597569	0.041024563	0.12075115	0.3420014	1.0053925	0.15079723	0.21742105	1.0221401	0.19260362	0.093259712	1.0229525	-0.033835747	0.23579971	1.0059084	-0.21356926	0.35275598	0.98725708	-0.16730888	0.35809155	1.4442775	-0.021685652	0.2701091	1.5092363	0.11562281	0.27164334	1.5112083	-0.17553131	0.3925715	1.351738	-0.036461216	0.36369513	1.3959309	-0.14445056	0.28480112	0.49655066	0.02614813	0.28399103	0.51982965	0.15311023	0.36394278	0.65004822	0.089188599	0.25553796	0.10171696	0.074236954	0.19851891	0.085734703	0.16293324	0.23309505	0.3181275	0.17681573	0.38572174	0.046752178	0.11242367
8871	45.05	0.15975282	0.041018856	0.1207795	0.34327011	1.0056418	0.15090018	0.21865176	1.0221284	0.19259644	0.094769783	1.0225247	-0.033928143	0.23739113	1.0057827	-0.2135079	0.35431723	0.9874223	-0.16722539	0.35770169	1.4447534	-0.021446903	0.26931827	1.5092804	0.11588583	0.2708129	1.5111907	-0.17531596	0.39258316	1.3523582	-0.036232937	0.36349139	1.3964197	-0.1442379	0.28399014	0.49663138	0.026284079	0.28320779	0.51997681	0.15317047	0.36387872	0.6498692	0.089234474	0.25548581	0.10181634	0.074328354	0.19842178	0.085709961	0.16297359	0.23238457	0.31825797	0.17693527	0.38567105	0.046682079	0.11254508
